<?xml version="1.0" standalone="no"?>
<!DOCTYPE svg PUBLIC "-//W3C//DTD SVG 20010904//EN"
 "http://www.w3.org/TR/2001/REC-SVG-20010904/DTD/svg10.dtd">
<svg version="1.0" xmlns="http://www.w3.org/2000/svg"
 width="100.000000pt" height="100.000000pt" viewBox="0 0 100.000000 100.000000"
 preserveAspectRatio="xMidYMid meet">
<metadata>
Created by potrace 1.14, written by Peter Selinger 2001-2017
</metadata>
<g transform="translate(0.000000,100.000000) scale(0.100000,-0.100000)"
fill="#000000" stroke="none">
<path d="M386 939 c-110 -27 -245 -139 -292 -244 -53 -116 -53 -265 0 -380 37
-80 126 -169 214 -212 75 -37 78 -38 192 -38 114 0 117 1 192 38 180 88 280
277 249 472 -22 144 -120 273 -257 337 -58 27 -80 32 -163 34 -53 2 -113 -1
-135 -7z m264 -111 c226 -111 277 -396 102 -572 -26 -27 -72 -60 -102 -75 -47
-22 -68 -26 -150 -26 -83 0 -102 3 -150 27 -146 72 -228 227 -201 381 14 80
42 134 99 191 79 80 148 107 267 103 64 -2 91 -8 135 -29z"/>
<path d="M347 728 c-14 -11 -16 -39 -17 -208 -1 -107 -1 -203 -1 -213 1 -9 11
-22 24 -28 20 -9 46 3 198 89 141 82 175 105 177 124 2 14 -5 31 -15 40 -23
20 -331 208 -342 208 -4 0 -15 -6 -24 -12z"/>
</g>
</svg>
